<svg width="13" height="15" viewBox="0 0 13 15" fill="none" xmlns="http://www.w3.org/2000/svg">
<path d="M7.96906 2.81261C8.74575 2.81261 9.37537 2.183 9.37537 1.4063C9.37537 0.629614 8.74575 0 7.96906 0C7.19237 0 6.56276 0.629614 6.56276 1.4063C6.56276 2.183 7.19237 2.81261 7.96906 2.81261ZM3.33089 9.30124L2.89728 10.3126H0.937537C0.419841 10.3126 0 10.7324 0 11.2501C0 11.7678 0.419841 12.1877 0.937537 12.1877H3.20667C3.77065 12.1877 4.27839 11.8525 4.499 11.3354L4.75653 10.7342L4.44392 10.5496C3.93648 10.2499 3.56323 9.80634 3.33089 9.30124ZM11.2504 6.56246H9.96045L9.19694 5.00234C8.83072 4.25378 8.15833 3.70649 7.38691 3.5099L5.30441 2.89054C4.47527 2.69132 3.61186 2.87443 2.93595 3.39271L1.7737 4.28366C1.36265 4.59862 1.28472 5.18692 1.60026 5.59797C1.9158 6.00902 2.50381 6.08608 2.91457 5.77142L4.07741 4.88046C4.30212 4.7079 4.58836 4.64608 4.81777 4.70057L5.24845 4.82861L4.15094 7.38896C3.7812 8.25267 4.11256 9.26433 4.92148 9.74188L7.41123 11.2118L6.60641 13.7821C6.45172 14.276 6.72683 14.8019 7.22079 14.9566C7.31425 14.9859 7.40859 15 7.50146 15C7.90021 15 8.26995 14.7431 8.39564 14.3423L9.32263 11.3814C9.49578 10.7729 9.23796 10.1192 8.68862 9.78788L6.89441 8.72905L7.81173 6.4356L8.4056 7.64942C8.63999 8.12815 9.13571 8.43724 9.66864 8.43724H11.2504C11.7681 8.43724 12.188 8.0174 12.188 7.49971C12.188 6.98201 11.7681 6.56246 11.2504 6.56246Z" fill="#AF8C58"/>
</svg>
