<svg width="32" height="31" viewBox="0 0 32 31" fill="none" xmlns="http://www.w3.org/2000/svg">
<path d="M10.5714 17.4375H7.71429C7.24286 17.4375 6.85714 17.1105 6.85714 16.7109V14.2891C6.85714 13.8895 7.24286 13.5625 7.71429 13.5625H10.5714C11.0429 13.5625 11.4286 13.8895 11.4286 14.2891V16.7109C11.4286 17.1105 11.0429 17.4375 10.5714 17.4375ZM18.2857 16.7109V14.2891C18.2857 13.8895 17.9 13.5625 17.4286 13.5625H14.5714C14.1 13.5625 13.7143 13.8895 13.7143 14.2891V16.7109C13.7143 17.1105 14.1 17.4375 14.5714 17.4375H17.4286C17.9 17.4375 18.2857 17.1105 18.2857 16.7109ZM25.1429 16.7109V14.2891C25.1429 13.8895 24.7571 13.5625 24.2857 13.5625H21.4286C20.9571 13.5625 20.5714 13.8895 20.5714 14.2891V16.7109C20.5714 17.1105 20.9571 17.4375 21.4286 17.4375H24.2857C24.7571 17.4375 25.1429 17.1105 25.1429 16.7109ZM18.2857 22.5234V20.1016C18.2857 19.702 17.9 19.375 17.4286 19.375H14.5714C14.1 19.375 13.7143 19.702 13.7143 20.1016V22.5234C13.7143 22.923 14.1 23.25 14.5714 23.25H17.4286C17.9 23.25 18.2857 22.923 18.2857 22.5234ZM11.4286 22.5234V20.1016C11.4286 19.702 11.0429 19.375 10.5714 19.375H7.71429C7.24286 19.375 6.85714 19.702 6.85714 20.1016V22.5234C6.85714 22.923 7.24286 23.25 7.71429 23.25H10.5714C11.0429 23.25 11.4286 22.923 11.4286 22.5234ZM25.1429 22.5234V20.1016C25.1429 19.702 24.7571 19.375 24.2857 19.375H21.4286C20.9571 19.375 20.5714 19.702 20.5714 20.1016V22.5234C20.5714 22.923 20.9571 23.25 21.4286 23.25H24.2857C24.7571 23.25 25.1429 22.923 25.1429 22.5234ZM32 6.78125V28.0938C32 29.6982 30.4643 31 28.5714 31H3.42857C1.53571 31 0 29.6982 0 28.0938V6.78125C0 5.17676 1.53571 3.875 3.42857 3.875H6.85714V0.726562C6.85714 0.326953 7.24286 0 7.71429 0H10.5714C11.0429 0 11.4286 0.326953 11.4286 0.726562V3.875H20.5714V0.726562C20.5714 0.326953 20.9571 0 21.4286 0H24.2857C24.7571 0 25.1429 0.326953 25.1429 0.726562V3.875H28.5714C30.4643 3.875 32 5.17676 32 6.78125ZM28.5714 27.7305V9.6875H3.42857V27.7305C3.42857 27.9303 3.62143 28.0938 3.85714 28.0938H28.1429C28.3786 28.0938 28.5714 27.9303 28.5714 27.7305Z" fill="black"/>
</svg>
