<svg width="9" height="9" viewBox="0 0 9 9" fill="none" xmlns="http://www.w3.org/2000/svg">
<path d="M2.97321 5.39062H2.16964C2.03705 5.39062 1.92857 5.30361 1.92857 5.19727V4.55273C1.92857 4.44639 2.03705 4.35938 2.16964 4.35938H2.97321C3.1058 4.35938 3.21429 4.44639 3.21429 4.55273V5.19727C3.21429 5.30361 3.1058 5.39062 2.97321 5.39062ZM5.14286 5.19727V4.55273C5.14286 4.44639 5.03437 4.35938 4.90179 4.35938H4.09821C3.96563 4.35938 3.85714 4.44639 3.85714 4.55273V5.19727C3.85714 5.30361 3.96563 5.39062 4.09821 5.39062H4.90179C5.03437 5.39062 5.14286 5.30361 5.14286 5.19727ZM7.07143 5.19727V4.55273C7.07143 4.44639 6.96295 4.35938 6.83036 4.35938H6.02679C5.8942 4.35938 5.78571 4.44639 5.78571 4.55273V5.19727C5.78571 5.30361 5.8942 5.39062 6.02679 5.39062H6.83036C6.96295 5.39062 7.07143 5.30361 7.07143 5.19727ZM5.14286 6.74414V6.09961C5.14286 5.99326 5.03437 5.90625 4.90179 5.90625H4.09821C3.96563 5.90625 3.85714 5.99326 3.85714 6.09961V6.74414C3.85714 6.85049 3.96563 6.9375 4.09821 6.9375H4.90179C5.03437 6.9375 5.14286 6.85049 5.14286 6.74414ZM3.21429 6.74414V6.09961C3.21429 5.99326 3.1058 5.90625 2.97321 5.90625H2.16964C2.03705 5.90625 1.92857 5.99326 1.92857 6.09961V6.74414C1.92857 6.85049 2.03705 6.9375 2.16964 6.9375H2.97321C3.1058 6.9375 3.21429 6.85049 3.21429 6.74414ZM7.07143 6.74414V6.09961C7.07143 5.99326 6.96295 5.90625 6.83036 5.90625H6.02679C5.8942 5.90625 5.78571 5.99326 5.78571 6.09961V6.74414C5.78571 6.85049 5.8942 6.9375 6.02679 6.9375H6.83036C6.96295 6.9375 7.07143 6.85049 7.07143 6.74414ZM9 2.55469V8.22656C9 8.65356 8.56808 9 8.03571 9H0.964286C0.43192 9 0 8.65356 0 8.22656V2.55469C0 2.12769 0.43192 1.78125 0.964286 1.78125H1.92857V0.943359C1.92857 0.837012 2.03705 0.75 2.16964 0.75H2.97321C3.1058 0.75 3.21429 0.837012 3.21429 0.943359V1.78125H5.78571V0.943359C5.78571 0.837012 5.8942 0.75 6.02679 0.75H6.83036C6.96295 0.75 7.07143 0.837012 7.07143 0.943359V1.78125H8.03571C8.56808 1.78125 9 2.12769 9 2.55469ZM8.03571 8.12988V3.32812H0.964286V8.12988C0.964286 8.18306 1.01853 8.22656 1.08482 8.22656H7.91518C7.98147 8.22656 8.03571 8.18306 8.03571 8.12988Z" fill="#AF8C58"/>
</svg>
