<svg width="14" height="15" viewBox="0 0 14 15" fill="none" xmlns="http://www.w3.org/2000/svg">
<path d="M13.475 5.625H10.5V0.703125C10.5 0.314648 10.2651 0 9.975 0H6.825C6.53494 0 6.3 0.314648 6.3 0.703125V2.8125H4.9V0.46875C4.9 0.209766 4.74337 0 4.55 0H4.2C4.00662 0 3.85 0.209766 3.85 0.46875V2.8125H2.45V0.46875C2.45 0.209766 2.29337 0 2.1 0H1.75C1.55662 0 1.4 0.209766 1.4 0.46875V2.8125H0.525C0.234937 2.8125 0 3.12715 0 3.51562V14.0625C0 14.5802 0.313469 15 0.7 15H13.3C13.6865 15 14 14.5802 14 14.0625V6.32812C14 5.93965 13.7648 5.625 13.475 5.625ZM2.8 11.8359C2.8 12.0302 2.68253 12.1875 2.5375 12.1875H1.6625C1.51747 12.1875 1.4 12.0302 1.4 11.8359V10.6641C1.4 10.4698 1.51747 10.3125 1.6625 10.3125H2.5375C2.68253 10.3125 2.8 10.4698 2.8 10.6641V11.8359ZM2.8 9.02344C2.8 9.21768 2.68253 9.375 2.5375 9.375H1.6625C1.51747 9.375 1.4 9.21768 1.4 9.02344V7.85156C1.4 7.65732 1.51747 7.5 1.6625 7.5H2.5375C2.68253 7.5 2.8 7.65732 2.8 7.85156V9.02344ZM2.8 6.21094C2.8 6.40518 2.68253 6.5625 2.5375 6.5625H1.6625C1.51747 6.5625 1.4 6.40518 1.4 6.21094V5.03906C1.4 4.84482 1.51747 4.6875 1.6625 4.6875H2.5375C2.68253 4.6875 2.8 4.84482 2.8 5.03906V6.21094ZM5.6 11.8359C5.6 12.0302 5.48253 12.1875 5.3375 12.1875H4.4625C4.31747 12.1875 4.2 12.0302 4.2 11.8359V10.6641C4.2 10.4698 4.31747 10.3125 4.4625 10.3125H5.3375C5.48253 10.3125 5.6 10.4698 5.6 10.6641V11.8359ZM5.6 9.02344C5.6 9.21768 5.48253 9.375 5.3375 9.375H4.4625C4.31747 9.375 4.2 9.21768 4.2 9.02344V7.85156C4.2 7.65732 4.31747 7.5 4.4625 7.5H5.3375C5.48253 7.5 5.6 7.65732 5.6 7.85156V9.02344ZM5.6 6.21094C5.6 6.40518 5.48253 6.5625 5.3375 6.5625H4.4625C4.31747 6.5625 4.2 6.40518 4.2 6.21094V5.03906C4.2 4.84482 4.31747 4.6875 4.4625 4.6875H5.3375C5.48253 4.6875 5.6 4.84482 5.6 5.03906V6.21094ZM9.1 9.02344C9.1 9.21768 8.98253 9.375 8.8375 9.375H7.9625C7.81747 9.375 7.7 9.21768 7.7 9.02344V7.85156C7.7 7.65732 7.81747 7.5 7.9625 7.5H8.8375C8.98253 7.5 9.1 7.65732 9.1 7.85156V9.02344ZM9.1 6.21094C9.1 6.40518 8.98253 6.5625 8.8375 6.5625H7.9625C7.81747 6.5625 7.7 6.40518 7.7 6.21094V5.03906C7.7 4.84482 7.81747 4.6875 7.9625 4.6875H8.8375C8.98253 4.6875 9.1 4.84482 9.1 5.03906V6.21094ZM9.1 3.39844C9.1 3.59268 8.98253 3.75 8.8375 3.75H7.9625C7.81747 3.75 7.7 3.59268 7.7 3.39844V2.22656C7.7 2.03232 7.81747 1.875 7.9625 1.875H8.8375C8.98253 1.875 9.1 2.03232 9.1 2.22656V3.39844ZM12.6 11.8359C12.6 12.0302 12.4825 12.1875 12.3375 12.1875H11.4625C11.3175 12.1875 11.2 12.0302 11.2 11.8359V10.6641C11.2 10.4698 11.3175 10.3125 11.4625 10.3125H12.3375C12.4825 10.3125 12.6 10.4698 12.6 10.6641V11.8359ZM12.6 9.02344C12.6 9.21768 12.4825 9.375 12.3375 9.375H11.4625C11.3175 9.375 11.2 9.21768 11.2 9.02344V7.85156C11.2 7.65732 11.3175 7.5 11.4625 7.5H12.3375C12.4825 7.5 12.6 7.65732 12.6 7.85156V9.02344Z" fill="#AF8C58"/>
</svg>
