<svg width="36" height="40" viewBox="0 0 36 40" fill="none" xmlns="http://www.w3.org/2000/svg">
<g filter="url(#filter0_d_109_29)">
<path d="M28.5 4H22.6667C22.6667 1.79375 20.574 0 18 0C15.426 0 13.3333 1.79375 13.3333 4H7.5C5.56771 4 4 5.34375 4 7V29C4 30.6562 5.56771 32 7.5 32H28.5C30.4323 32 32 30.6562 32 29V7C32 5.34375 30.4323 4 28.5 4ZM11 26.5C10.0302 26.5 9.25 25.8313 9.25 25C9.25 24.1687 10.0302 23.5 11 23.5C11.9698 23.5 12.75 24.1687 12.75 25C12.75 25.8313 11.9698 26.5 11 26.5ZM11 20.5C10.0302 20.5 9.25 19.8313 9.25 19C9.25 18.1687 10.0302 17.5 11 17.5C11.9698 17.5 12.75 18.1687 12.75 19C12.75 19.8313 11.9698 20.5 11 20.5ZM11 14.5C10.0302 14.5 9.25 13.8313 9.25 13C9.25 12.1687 10.0302 11.5 11 11.5C11.9698 11.5 12.75 12.1687 12.75 13C12.75 13.8313 11.9698 14.5 11 14.5ZM18 2.5C18.9698 2.5 19.75 3.16875 19.75 4C19.75 4.83125 18.9698 5.5 18 5.5C17.0302 5.5 16.25 4.83125 16.25 4C16.25 3.16875 17.0302 2.5 18 2.5ZM27.3333 25.5C27.3333 25.775 27.0708 26 26.75 26H16.25C15.9292 26 15.6667 25.775 15.6667 25.5V24.5C15.6667 24.225 15.9292 24 16.25 24H26.75C27.0708 24 27.3333 24.225 27.3333 24.5V25.5ZM27.3333 19.5C27.3333 19.775 27.0708 20 26.75 20H16.25C15.9292 20 15.6667 19.775 15.6667 19.5V18.5C15.6667 18.225 15.9292 18 16.25 18H26.75C27.0708 18 27.3333 18.225 27.3333 18.5V19.5ZM27.3333 13.5C27.3333 13.775 27.0708 14 26.75 14H16.25C15.9292 14 15.6667 13.775 15.6667 13.5V12.5C15.6667 12.225 15.9292 12 16.25 12H26.75C27.0708 12 27.3333 12.225 27.3333 12.5V13.5Z" fill="black"/>
</g>
<defs>
<filter id="filter0_d_109_29" x="0" y="0" width="36" height="40" filterUnits="userSpaceOnUse" color-interpolation-filters="sRGB">
<feFlood flood-opacity="0" result="BackgroundImageFix"/>
<feColorMatrix in="SourceAlpha" type="matrix" values="0 0 0 0 0 0 0 0 0 0 0 0 0 0 0 0 0 0 127 0" result="hardAlpha"/>
<feOffset dy="4"/>
<feGaussianBlur stdDeviation="2"/>
<feComposite in2="hardAlpha" operator="out"/>
<feColorMatrix type="matrix" values="0 0 0 0 0 0 0 0 0 0 0 0 0 0 0 0 0 0 0.25 0"/>
<feBlend mode="normal" in2="BackgroundImageFix" result="effect1_dropShadow_109_29"/>
<feBlend mode="normal" in="SourceGraphic" in2="effect1_dropShadow_109_29" result="shape"/>
</filter>
</defs>
</svg>
