<svg width="27" height="24" viewBox="0 0 27 24" fill="none" xmlns="http://www.w3.org/2000/svg">
<path d="M13.3378 0C10.115 0 7.50254 2.61246 7.50254 5.83531C7.50254 8.44082 11.3163 13.1896 12.7775 14.9134C13.0734 15.2626 13.6028 15.2626 13.8982 14.9134C15.3594 13.1896 19.1732 8.44082 19.1732 5.83531C19.1732 2.61246 16.5607 0 13.3378 0ZM13.3378 7.78041C12.2634 7.78041 11.3927 6.90975 11.3927 5.83531C11.3927 4.76087 12.2634 3.89021 13.3378 3.89021C14.4123 3.89021 15.283 4.76087 15.283 5.83531C15.283 6.90975 14.4123 7.78041 13.3378 7.78041ZM0.931797 10.0011C0.656786 10.1111 0.421036 10.3009 0.254952 10.5462C0.0888674 10.7914 6.58652e-05 11.0808 0 11.377L0 22.9698C0 23.4941 0.529346 23.8525 1.01608 23.658L7.40992 20.7478V9.95337C7.00052 9.2133 6.66568 8.49269 6.42579 7.80357L0.931797 10.0011ZM13.3378 16.657C12.6862 16.657 12.0698 16.3708 11.647 15.8716C10.7365 14.7971 9.76812 13.5736 8.8919 12.3185V20.7473L17.7838 23.7113V12.319C16.9076 13.5736 15.9397 14.7976 15.0287 15.872C14.6059 16.3708 13.9895 16.657 13.3378 16.657ZM25.6596 7.46364L19.2658 10.3739V23.7117L25.7439 21.1206C26.0189 21.0106 26.2547 20.8208 26.4208 20.5755C26.5869 20.3303 26.6757 20.0409 26.6757 19.7446V8.15183C26.6757 7.62758 26.1464 7.26913 25.6596 7.46364Z" fill="black"/>
</svg>
