<svg width="13" height="11" viewBox="0 0 13 11" fill="none" xmlns="http://www.w3.org/2000/svg">
<path d="M3.9 5.5C5.15734 5.5 6.175 4.26987 6.175 2.75C6.175 1.23013 5.15734 0 3.9 0C2.64266 0 1.625 1.23013 1.625 2.75C1.625 4.26987 2.64266 5.5 3.9 5.5ZM5.46 6.28571H5.29141C4.86891 6.53125 4.39969 6.67857 3.9 6.67857C3.40031 6.67857 2.93312 6.53125 2.50859 6.28571H2.34C1.04812 6.28571 0 7.55268 0 9.11429V9.82143C0 10.4721 0.436719 11 0.975 11H6.825C7.36328 11 7.8 10.4721 7.8 9.82143V9.11429C7.8 7.55268 6.75187 6.28571 5.46 6.28571ZM9.75 5.5C10.8266 5.5 11.7 4.4442 11.7 3.14286C11.7 1.84152 10.8266 0.785714 9.75 0.785714C8.67344 0.785714 7.8 1.84152 7.8 3.14286C7.8 4.4442 8.67344 5.5 9.75 5.5ZM10.725 6.28571H10.6478C10.3655 6.40357 10.0669 6.48214 9.75 6.48214C9.43312 6.48214 9.13453 6.40357 8.85219 6.28571H8.775C8.36062 6.28571 7.97875 6.43058 7.64359 6.66384C8.13922 7.3096 8.45 8.16652 8.45 9.11429V10.0571C8.45 10.1112 8.43984 10.1627 8.43781 10.2143H12.025C12.5633 10.2143 13 9.68638 13 9.03571C13 7.51585 11.9823 6.28571 10.725 6.28571Z" fill="#AF8C58"/>
</svg>
