<svg width="30" height="27" viewBox="0 0 30 27" fill="none" xmlns="http://www.w3.org/2000/svg">
<path d="M29.592 23.3434L23.7497 18.0863C23.486 17.849 23.1286 17.7172 22.7536 17.7172H21.7985C23.4157 15.8556 24.3766 13.5148 24.3766 10.9677C24.3766 4.90904 18.921 0 12.1886 0C5.45622 0 0 4.90904 0 10.9677C0 17.0263 5.45564 21.9354 12.1886 21.9354C15.0187 21.9354 17.6208 21.0705 19.6892 19.6151V20.4746C19.6892 20.8121 19.8356 21.1338 20.0993 21.3711L25.9417 26.6282C26.4924 27.1239 27.3831 27.1239 27.928 26.6282L29.5862 25.1358C30.137 24.6401 30.137 23.8391 29.592 23.3434ZM12.1886 18.5604C7.52809 18.5604 3.75115 15.1675 3.75115 10.9677C3.75115 6.77373 7.52164 3.375 12.1886 3.375C16.8491 3.375 20.6261 6.76793 20.6261 10.9677C20.6261 15.1617 16.8556 18.5604 12.1886 18.5604ZM12.1898 5.90625C9.80034 5.90625 7.86324 7.64912 7.86324 9.79963C7.86324 11.5378 10.691 14.7066 11.7744 15.8567C11.8252 15.9114 11.8887 15.9554 11.9605 15.9856C12.0323 16.0158 12.1105 16.0315 12.1898 16.0315C12.269 16.0315 12.3473 16.0158 12.4191 15.9856C12.4909 15.9554 12.5544 15.9114 12.6052 15.8567C13.6886 14.7066 16.5163 11.5383 16.5163 9.79963C16.5163 7.64912 14.5792 5.90625 12.1898 5.90625ZM12.1898 10.9688C11.4128 10.9688 10.7835 10.4019 10.7835 9.70312C10.7835 9.00387 11.4134 8.4375 12.1898 8.4375C12.9661 8.4375 13.596 9.00387 13.596 9.70312C13.596 10.4019 12.9661 10.9688 12.1898 10.9688Z" fill="black"/>
</svg>
