<svg width="11" height="9" viewBox="0 0 11 9" fill="none" xmlns="http://www.w3.org/2000/svg">
<path d="M5.5 0C2.46169 0 0 2.01411 0 4.5C0 6.98589 2.46169 9 5.5 9C8.53831 9 11 6.98589 11 4.5C11 2.01411 8.53831 0 5.5 0ZM5.5 8.12903C3.0494 8.12903 1.06452 6.50504 1.06452 4.5C1.06452 2.49496 3.0494 0.870968 5.5 0.870968C7.9506 0.870968 9.93548 2.49496 9.93548 4.5C9.93548 6.50504 7.9506 8.12903 5.5 8.12903ZM6.87056 6.23468L4.9877 5.11512C4.91895 5.07339 4.87903 5.00806 4.87903 4.93911V1.95968C4.87903 1.83992 4.99879 1.74194 5.14516 1.74194H5.85484C6.00121 1.74194 6.12097 1.83992 6.12097 1.95968V4.53085L7.60242 5.4127C7.72218 5.48347 7.74657 5.61956 7.66008 5.71754L7.24314 6.1875C7.15665 6.28367 6.99032 6.30544 6.87056 6.23468Z" fill="#AF8C58"/>
</svg>
